<svg xmlns="http://www.w3.org/2000/svg"  viewBox="0 0 100 100" width="200px" height="200px"><path fill="#fed5b3" d="M86.315,42.238c-0.383-0.127-0.857-0.28-1.404-0.452C80.622,25.635,64.317,14,50,14 c-16.624,0-30.646,11.329-34.767,26.671c-0.647,0.211-1.18,0.397-1.576,0.542C13.262,41.357,13,41.732,13,42.152v6.917 c0,0.327,0.16,0.633,0.428,0.82c0.17,0.119,0.37,0.18,0.572,0.18V51c0,19.851,16.149,36,36,36s36-16.149,36-36v-0.356 c0.21,0,0.417-0.066,0.59-0.193c0.258-0.188,0.41-0.488,0.41-0.807v-6.457C87,42.757,86.724,42.374,86.315,42.238z"/><path fill="#fff" d="M50,54.755c0,6.71-5.239,12.745-11.519,12.745c-6.088,0-9.897-5.718-8.79-12.111 c0.999-5.764,5.748-10.265,10.808-10.552C45.691,44.542,50,48.738,50,54.755z"/><path fill="#fff" d="M50,54.854C50,61.512,55.239,67.5,61.519,67.5c6.088,0,9.897-5.674,8.79-12.017 c-0.999-5.72-5.748-10.185-10.808-10.471C54.309,44.72,50,48.883,50,54.854z"/><path fill="#ee4267" d="M86.5,42.826c-3.025-1.029-19.491-6.326-38-6.326c-19.962,0-32.438,4.326-35,5.303v7.988 C15.997,48.789,28.033,44.5,51,44.5c17.104,0,32.58,4.86,35.5,5.831V42.826z"/><path fill="#565fa0" d="M50,14c-16.624,0-30.646,11.329-34.767,26.671c0,0-0.047,0.221-0.113,0.56 c4.503-1.508,16.132-4.73,33.381-4.73c16.294,0,30.999,4.104,36.351,5.789l0.13,0.042l-0.071-0.545C80.622,25.635,64.317,14,50,14z"/><path fill="#ee4267" d="M55.5,17.5c-0.091,0-0.184-0.013-0.275-0.039l-14-4c-0.531-0.152-0.838-0.705-0.687-1.236 c0.152-0.531,0.707-0.839,1.236-0.687l14,4c0.531,0.152,0.838,0.705,0.687,1.236C56.336,17.214,55.936,17.5,55.5,17.5z"/><path fill="#ee4267" d="M53.562,20.732c-0.261,0-0.522-0.102-0.719-0.305L42.719,9.963c-0.384-0.397-0.374-1.03,0.023-1.414 c0.397-0.384,1.03-0.373,1.414,0.023L54.28,19.036c0.384,0.397,0.374,1.03-0.023,1.414C54.063,20.639,53.812,20.732,53.562,20.732z"/><path fill="#ee4267" d="M50.267,22.562c-0.448,0-0.855-0.303-0.969-0.757L45.762,7.681 c-0.134-0.536,0.191-1.079,0.728-1.213c0.537-0.132,1.079,0.191,1.213,0.728l3.536,14.124c0.134,0.536-0.191,1.079-0.728,1.213 C50.429,22.552,50.348,22.562,50.267,22.562z"/><path fill="#ee4267" d="M46.5,22.5c-0.091,0-0.184-0.013-0.275-0.039c-0.531-0.152-0.838-0.705-0.687-1.236l4-14 c0.152-0.53,0.706-0.838,1.236-0.687c0.531,0.152,0.838,0.705,0.687,1.236l-4,14C47.336,22.214,46.936,22.5,46.5,22.5z"/><path fill="#ee4267" d="M43.268,20.562c-0.261,0-0.522-0.102-0.719-0.305c-0.384-0.397-0.374-1.03,0.023-1.414L53.037,8.719 c0.396-0.384,1.03-0.373,1.414,0.023c0.384,0.397,0.374,1.03-0.023,1.414L43.963,20.281C43.769,20.469,43.519,20.562,43.268,20.562 z"/><path fill="#ee4267" d="M41.437,17.268c-0.448,0-0.855-0.303-0.969-0.757c-0.134-0.536,0.191-1.079,0.728-1.213 l14.124-3.536c0.535-0.129,1.079,0.191,1.213,0.728c0.134,0.536-0.191,1.079-0.728,1.213l-14.124,3.536 C41.599,17.258,41.518,17.268,41.437,17.268z"/><g><path fill="#1f212b" d="M50.5,79c-3.61,0-5.211-1.04-5.277-1.084c-0.23-0.153-0.292-0.464-0.139-0.693 c0.152-0.229,0.461-0.293,0.691-0.141C45.812,77.105,47.257,78,50.5,78c3.27,0,4.711-0.909,4.726-0.918 c0.23-0.149,0.54-0.086,0.69,0.145c0.151,0.229,0.09,0.537-0.139,0.689C55.711,77.96,54.11,79,50.5,79z"/><path fill="#1f212b" d="M86.5,50.831c-0.053,0-0.106-0.008-0.158-0.025C83.428,49.836,68.025,45,51,45 c-23.05,0-35.127,4.377-37.314,5.255c-0.155,0.062-0.33,0.042-0.466-0.05C13.083,50.112,13,49.957,13,49.791v-7.988 c0-0.208,0.128-0.393,0.322-0.467C15.658,40.445,28.335,36,48.5,36c18.549,0,35.043,5.292,38.161,6.353 C86.863,42.422,87,42.612,87,42.826v7.505c0,0.161-0.077,0.312-0.207,0.406C86.706,50.799,86.604,50.831,86.5,50.831z M51,44 c16.155,0,30.858,4.314,35,5.642v-6.457C82.193,41.916,66.3,37,48.5,37c-19.199,0-31.511,4.05-34.5,5.15v6.914 C17.47,47.784,29.546,44,51,44z"/><path fill="#1f212b" d="M44.512,14.92l-3.42-0.98c-0.383-0.106-0.705-0.356-0.899-0.704 c-0.196-0.349-0.244-0.754-0.134-1.143c0.106-0.385,0.359-0.706,0.709-0.902c0.35-0.196,0.755-0.243,1.141-0.132l3.419,0.98 L45.052,13l-3.42-0.98c-0.127-0.036-0.26-0.021-0.376,0.044c-0.116,0.064-0.199,0.171-0.234,0.299 c-0.038,0.132-0.022,0.268,0.042,0.383c0.064,0.113,0.17,0.196,0.299,0.231l3.424,0.981L44.512,14.92z"/><path fill="#1f212b" d="M55.5,18c-0.156,0-0.297-0.021-0.429-0.066l-3.399-0.973L51.947,16l3.421,0.98 c0.287,0.094,0.54-0.083,0.609-0.341c0.038-0.134,0.022-0.269-0.042-0.384c-0.063-0.114-0.17-0.197-0.3-0.232l-3.424-0.981 l0.275-0.961l3.42,0.98c0.384,0.106,0.705,0.357,0.9,0.705c0.196,0.349,0.243,0.754,0.134,1.142C56.766,17.548,56.173,18,55.5,18z"/><path fill="#1f212b" d="M46.221,14.298l-3.86-3.99c-0.574-0.589-0.562-1.539,0.03-2.116 c0.606-0.574,1.536-0.562,2.123,0.024l2.466,2.557l-0.72,0.694l-2.46-2.55c-0.194-0.194-0.511-0.2-0.716-0.005 c-0.189,0.185-0.194,0.506-0.006,0.699l3.861,3.992L46.221,14.298z"/><path fill="#1f212b" d="M53.56,21.23c-0.403,0-0.784-0.158-1.073-0.446l-2.466-2.557l0.72-0.694l2.46,2.55 c0.154,0.156,0.408,0.293,0.716,0.004c0.188-0.184,0.193-0.506,0.006-0.699l-3.861-3.991l0.719-0.695l3.86,3.99 c0.574,0.59,0.561,1.54-0.031,2.116C54.32,21.082,53.949,21.23,53.56,21.23z"/><path fill="#1f212b" d="M46.805,13.892l-1.53-6.09c-0.097-0.395-0.034-0.8,0.177-1.145c0.208-0.341,0.535-0.58,0.922-0.673 c0.391-0.093,0.792-0.033,1.132,0.171c0.344,0.207,0.586,0.536,0.68,0.928l0.874,3.557l-0.521,0.005l-0.464,0.116l-0.86-3.44 c-0.032-0.133-0.111-0.241-0.224-0.309c-0.115-0.069-0.25-0.088-0.383-0.057c-0.127,0.031-0.234,0.109-0.302,0.221 c-0.071,0.117-0.092,0.253-0.06,0.384l1.529,6.087L46.805,13.892z"/><path fill="#1f212b" d="M50.27,23.06c-0.696,0-1.295-0.47-1.457-1.144L47.94,18.36l0.521-0.005l0.464-0.116l0.86,3.44 c0.063,0.264,0.317,0.438,0.603,0.366c0.131-0.032,0.238-0.11,0.307-0.222c0.071-0.117,0.092-0.253,0.06-0.384l-1.529-6.087 l0.97-0.244l1.531,6.09c0.096,0.395,0.033,0.8-0.177,1.145c-0.208,0.341-0.535,0.58-0.922,0.673 C50.512,23.045,50.39,23.06,50.27,23.06z"/><path fill="#1f212b" d="M46.5,23c-0.157,0-0.297-0.021-0.43-0.066c-0.361-0.1-0.683-0.35-0.877-0.697 c-0.196-0.349-0.244-0.754-0.134-1.143l0.98-3.421L47,17.948l-0.98,3.42c-0.036,0.128-0.021,0.264,0.044,0.379 c0.064,0.113,0.17,0.196,0.299,0.231c0.308,0.1,0.543-0.082,0.614-0.34l1.841-6.445l0.962,0.273l-1.84,6.441 C47.766,22.548,47.173,23,46.5,23z"/><path fill="#1f212b" d="M48.181,13.807l-0.962-0.274l1.84-6.44c0.107-0.384,0.357-0.705,0.705-0.9 c0.349-0.196,0.754-0.244,1.143-0.134c0.386,0.107,0.706,0.358,0.901,0.706c0.196,0.349,0.243,0.754,0.134,1.142l-0.981,3.421 L50,11.052l0.98-3.42C51.016,7.504,51,7.369,50.936,7.254c-0.064-0.114-0.17-0.196-0.3-0.232C50.504,6.984,50.369,7,50.253,7.064 c-0.113,0.064-0.196,0.17-0.231,0.299L48.181,13.807z"/><path fill="#1f212b" d="M43.27,21.06c-0.404,0-0.786-0.159-1.074-0.447c-0.579-0.609-0.566-1.54,0.02-2.127l2.557-2.466 l0.694,0.72l-2.55,2.46c-0.194,0.194-0.199,0.511-0.005,0.716c0.09,0.09,0.221,0.145,0.358,0.145c0.076,0,0.22-0.017,0.336-0.133 l5.056-4.886l0.695,0.719l-5.05,4.88C44.039,20.908,43.668,21.06,43.27,21.06z"/><path fill="#1f212b" d="M48.338,13.959l-0.695-0.719l5.05-4.88c0.271-0.271,0.641-0.423,1.036-0.423 c0.004,0,0.007,0,0.01,0c0.401,0.002,0.792,0.168,1.07,0.454c0.575,0.605,0.562,1.536-0.025,2.123l-2.557,2.466l-0.693-0.72 l2.55-2.46c0.194-0.194,0.199-0.511,0.005-0.716c-0.09-0.091-0.213-0.124-0.358-0.147c-0.129,0-0.248,0.048-0.336,0.136 L48.338,13.959z"/><path fill="#1f212b" d="M41.437,17.768c-0.688,0-1.286-0.467-1.454-1.135c-0.201-0.804,0.289-1.62,1.091-1.82l14.125-3.536 c0.802-0.196,1.621,0.295,1.819,1.092c0.2,0.802-0.29,1.618-1.093,1.818l-14.123,3.536C41.673,17.754,41.553,17.768,41.437,17.768 z M55.559,12.234c-0.04,0-0.08,0.004-0.121,0.014l-14.12,3.535c-0.268,0.067-0.431,0.339-0.364,0.607 c0.066,0.262,0.305,0.434,0.615,0.362l14.116-3.534c0.268-0.067,0.432-0.339,0.364-0.607 C55.992,12.385,55.785,12.234,55.559,12.234z"/><path fill="#1f212b" d="M72.494,28c-0.126,0-0.252-0.047-0.349-0.142c-3.68-3.589-8.111-6.389-12.816-8.097 c-0.26-0.095-0.394-0.381-0.299-0.641c0.094-0.26,0.382-0.392,0.641-0.3c4.837,1.756,9.392,4.634,13.172,8.321 c0.198,0.193,0.202,0.509,0.01,0.707C72.754,27.95,72.624,28,72.494,28z"/><path fill="#1f212b" d="M77.431,34c-0.163,0-0.324-0.081-0.42-0.229c-0.64-0.988-1.366-1.982-2.159-2.956 c-0.175-0.214-0.143-0.529,0.072-0.704c0.213-0.173,0.528-0.143,0.703,0.072c0.815,1.001,1.563,2.025,2.224,3.044 C78,33.46,77.935,33.77,77.702,33.92C77.618,33.974,77.524,34,77.431,34z"/><path fill="#1f212b" d="M79.642,38c-0.188,0-0.369-0.107-0.453-0.29c-0.154-0.332-0.314-0.659-0.479-0.984 c-0.126-0.246-0.027-0.547,0.219-0.672c0.243-0.122,0.548-0.028,0.672,0.219c0.171,0.335,0.337,0.674,0.495,1.016 c0.116,0.25,0.008,0.548-0.243,0.664C79.784,37.985,79.712,38,79.642,38z"/><path fill="#1f212b" d="M38.481,68c-2.766,0-5.253-1.145-7.002-3.222c-2.067-2.456-2.898-5.909-2.281-9.475 c1.031-5.946,5.876-10.66,11.272-10.966c2.542-0.143,4.972,0.736,6.818,2.481c2.071,1.957,3.211,4.775,3.211,7.936 C50.5,61.811,44.884,68,38.481,68z M41.01,45.322c-0.16,0-0.321,0.005-0.482,0.014c-4.863,0.276-9.406,4.729-10.344,10.138 c-0.567,3.274,0.184,6.431,2.061,8.66C33.8,65.982,36.015,67,38.481,67c5.87,0,11.019-5.722,11.019-12.245 c0-2.884-1.029-5.443-2.897-7.209C45.074,46.102,43.104,45.322,41.01,45.322z"/><path fill="#1f212b" d="M61.519,68C55.116,68,49.5,61.856,49.5,54.854c0-3.122,1.131-5.911,3.184-7.852 c1.85-1.749,4.264-2.637,6.846-2.489c5.396,0.304,10.241,4.984,11.271,10.884c0.615,3.521-0.206,6.938-2.253,9.373 C66.797,66.853,64.301,68,61.519,68z M58.99,45.498c-2.107,0-4.088,0.782-5.62,2.23c-1.851,1.75-2.87,4.28-2.87,7.125 C50.5,61.324,55.648,67,61.519,67c2.481,0,4.706-1.021,6.264-2.873c1.856-2.209,2.598-5.328,2.034-8.558 c-0.938-5.365-5.48-9.783-10.344-10.058C59.312,45.502,59.15,45.498,58.99,45.498z"/><circle cx="44" cy="56" r="1" fill="#1f212b"/><circle cx="56" cy="56" r="1" fill="#1f212b"/><path fill="#1f212b" d="M86.629,41.289c-0.26-0.086-0.561-0.185-0.898-0.292c-3.825-13.482-16.374-24.703-29.738-27.384 c-0.062,0.031-0.118,0.072-0.188,0.089l-3.442,0.862l3.412,0.975c0.082,0.023,0.148,0.072,0.218,0.113 c12.682,2.693,24.527,13.5,27.95,26.391l0.142,0.532l0.525,0.165c0.542,0.17,1.011,0.322,1.39,0.447v6.457h-1V51 c0,19.299-15.701,35-35,35S15,70.299,15,51v-1.931h-1l0.002-6.917c0.387-0.142,0.908-0.324,1.541-0.53l0.515-0.168l0.141-0.523 c3.248-12.091,12.644-21.289,24.262-24.594c-0.032-0.474,0.259-0.919,0.736-1.038l3.442-0.862l-2.249-0.642 C29.15,16.586,18.211,26.521,14.411,39.89c-0.435,0.146-0.804,0.276-1.097,0.384C12.528,40.561,12,41.315,12,42.152v6.917 c0,0.652,0.319,1.265,0.855,1.64c0.047,0.033,0.095,0.064,0.145,0.092V51c0,20.402,16.598,37,37,37 c20.276,0,36.795-16.394,36.998-36.623c0.062-0.036,0.123-0.076,0.182-0.119C87.693,50.884,88,50.28,88,49.644v-6.457 C88,42.324,87.449,41.561,86.629,41.289z"/></g></svg>